P2
50 50
150
50 150 150 150 150 150 150 150 150 150 150 150 150 150 150 150 150 150 150 150 150 150 150 150 150 150 150 150 150 150 150 150 150 150 150 150 150 150 150 150 150 150 150 150 150 150 150 150 150 50 
150 50 150 150 150 150 150 150 150 150 150 150 150 150 150 150 150 150 150 150 150 150 150 150 150 150 150 150 150 150 150 150 150 150 150 150 150 150 150 150 150 150 150 150 150 150 150 150 50 150 
150 150 50 150 150 150 150 150 150 150 150 150 150 150 150 150 150 150 150 150 150 150 150 150 150 150 150 150 150 150 150 150 150 150 150 150 150 150 150 150 150 150 150 150 150 150 150 50 150 150 
150 150 150 50 150 150 150 150 150 150 150 150 150 150 150 150 150 150 150 150 150 150 150 150 150 150 150 150 150 150 150 150 150 150 150 150 150 150 150 150 150 150 150 150 150 150 50 150 150 150 
150 150 150 150 50 150 150 150 150 150 150 150 150 150 150 150 150 150 150 150 150 150 150 150 150 150 150 150 150 150 150 150 150 150 150 150 150 150 150 150 150 150 150 150 150 50 150 150 150 150 
150 150 150 150 150 50 150 150 150 150 150 150 150 150 150 150 150 150 150 150 150 150 150 150 150 150 150 150 150 150 150 150 150 150 150 150 150 150 150 150 150 150 150 150 50 150 150 150 150 150 
150 150 150 150 150 150 50 150 150 150 150 150 150 150 150 150 150 150 150 150 150 150 150 150 150 150 150 150 150 150 150 150 150 150 150 150 150 150 150 150 150 150 150 50 150 150 150 150 150 150 
150 150 150 150 150 150 150 50 150 150 150 150 150 150 150 150 150 150 150 150 150 150 150 150 150 150 150 150 150 150 150 150 150 150 150 150 150 150 150 150 150 150 50 150 150 150 150 150 150 150 
150 150 150 150 150 150 150 150 50 150 150 150 150 150 150 150 150 150 150 150 150 150 150 150 150 150 150 150 150 150 150 150 150 150 150 150 150 150 150 150 150 50 150 150 150 150 150 150 150 150 
150 150 150 150 150 150 150 150 150 50 150 150 150 150 150 150 150 150 150 150 150 150 150 150 150 150 150 150 150 150 150 150 150 150 150 150 150 150 150 150 50 150 150 150 150 150 150 150 150 150 
150 150 150 150 150 150 150 150 150 150 50 150 150 150 150 150 150 150 150 150 150 150 150 150 150 150 150 150 150 150 150 150 150 150 150 150 150 150 150 50 150 150 150 150 150 150 150 150 150 150 
150 150 150 150 150 150 150 150 150 150 150 50 150 150 150 150 150 150 150 150 150 150 150 150 150 150 150 150 150 150 150 150 150 150 150 150 150 150 50 150 150 150 150 150 150 150 150 150 150 150 
150 150 150 150 150 150 150 150 150 150 150 150 50 150 150 150 150 150 150 150 150 150 150 150 150 150 150 150 150 150 150 150 150 150 150 150 150 50 150 150 150 150 150 150 150 150 150 150 150 150 
150 150 150 150 150 150 150 150 150 150 150 150 150 50 150 150 150 150 150 150 150 150 150 150 150 150 150 150 150 150 150 150 150 150 150 150 50 150 150 150 150 150 150 150 150 150 150 150 150 150 
150 150 150 150 150 150 150 150 150 150 150 150 150 150 50 150 150 150 150 150 150 150 150 150 150 150 150 150 150 150 150 150 150 150 150 50 150 150 150 150 150 150 150 150 150 150 150 150 150 150 
150 150 150 150 150 150 150 150 150 150 150 150 150 150 150 50 150 150 150 150 150 150 150 150 150 150 150 150 150 150 150 150 150 150 50 150 150 150 150 150 150 150 150 150 150 150 150 150 150 150 
150 150 150 150 150 150 150 150 150 150 150 150 150 150 150 150 50 150 150 150 150 150 150 150 150 150 150 150 150 150 150 150 150 50 150 150 150 150 150 150 150 150 150 150 150 150 150 150 150 150 
150 150 150 150 150 150 150 150 150 150 150 150 150 150 150 150 150 50 150 150 150 150 150 150 150 150 150 150 150 150 150 150 50 150 150 150 150 150 150 150 150 150 150 150 150 150 150 150 150 150 
150 150 150 150 150 150 150 150 150 150 150 150 150 150 150 150 150 150 50 150 150 150 150 150 150 150 150 150 150 150 150 50 150 150 150 150 150 150 150 150 150 150 150 150 150 150 150 150 150 150 
150 150 150 150 150 150 150 150 150 150 150 150 150 150 150 150 150 150 150 50 150 150 150 150 150 150 150 150 150 150 50 150 150 150 150 150 150 150 150 150 150 150 150 150 150 150 150 150 150 150 
150 150 150 150 150 150 150 150 150 150 150 150 150 150 150 150 150 150 150 150 50 150 150 150 150 150 150 150 150 50 150 150 150 150 150 150 150 150 150 150 150 150 150 150 150 150 150 150 150 150 
150 150 150 150 150 150 150 150 150 150 150 150 150 150 150 150 150 150 150 150 150 50 150 150 150 150 150 150 50 150 150 150 150 150 150 150 150 150 150 150 150 150 150 150 150 150 150 150 150 150 
150 150 150 150 150 150 150 150 150 150 150 150 150 150 150 150 150 150 150 150 150 150 50 150 150 150 150 50 150 150 150 150 150 150 150 150 150 150 150 150 150 150 150 150 150 150 150 150 150 150 
150 150 150 150 150 150 150 150 150 150 150 150 150 150 150 150 150 150 150 150 150 150 150 50 150 150 50 150 150 150 150 150 150 150 150 150 150 150 150 150 150 150 150 150 150 150 150 150 150 150 
150 150 150 150 150 150 150 150 150 150 150 150 150 150 150 150 150 150 150 150 150 150 150 150 50 50 150 150 150 150 150 150 150 150 150 150 150 150 150 150 150 150 150 150 150 150 150 150 150 150 
150 150 150 150 150 150 150 150 150 150 150 150 150 150 150 150 150 150 150 150 150 150 150 150 50 50 150 150 150 150 150 150 150 150 150 150 150 150 150 150 150 150 150 150 150 150 150 150 150 150 
150 150 150 150 150 150 150 150 150 150 150 150 150 150 150 150 150 150 150 150 150 150 150 50 150 150 50 150 150 150 150 150 150 150 150 150 150 150 150 150 150 150 150 150 150 150 150 150 150 150 
150 150 150 150 150 150 150 150 150 150 150 150 150 150 150 150 150 150 150 150 150 150 50 150 150 150 150 50 150 150 150 150 150 150 150 150 150 150 150 150 150 150 150 150 150 150 150 150 150 150 
150 150 150 150 150 150 150 150 150 150 150 150 150 150 150 150 150 150 150 150 150 50 150 150 150 150 150 150 50 150 150 150 150 150 150 150 150 150 150 150 150 150 150 150 150 150 150 150 150 150 
150 150 150 150 150 150 150 150 150 150 150 150 150 150 150 150 150 150 150 150 50 150 150 150 150 150 150 150 150 50 150 150 150 150 150 150 150 150 150 150 150 150 150 150 150 150 150 150 150 150 
150 150 150 150 150 150 150 150 150 150 150 150 150 150 150 150 150 150 150 50 150 150 150 150 150 150 150 150 150 150 50 150 150 150 150 150 150 150 150 150 150 150 150 150 150 150 150 150 150 150 
150 150 150 150 150 150 150 150 150 150 150 150 150 150 150 150 150 150 50 150 150 150 150 150 150 150 150 150 150 150 150 50 150 150 150 150 150 150 150 150 150 150 150 150 150 150 150 150 150 150 
150 150 150 150 150 150 150 150 150 150 150 150 150 150 150 150 150 50 150 150 150 150 150 150 150 150 150 150 150 150 150 150 50 150 150 150 150 150 150 150 150 150 150 150 150 150 150 150 150 150 
150 150 150 150 150 150 150 150 150 150 150 150 150 150 150 150 50 150 150 150 150 150 150 150 150 150 150 150 150 150 150 150 150 50 150 150 150 150 150 150 150 150 150 150 150 150 150 150 150 150 
150 150 150 150 150 150 150 150 150 150 150 150 150 150 150 50 150 150 150 150 150 150 150 150 150 150 150 150 150 150 150 150 150 150 50 150 150 150 150 150 150 150 150 150 150 150 150 150 150 150 
150 150 150 150 150 150 150 150 150 150 150 150 150 150 50 150 150 150 150 150 150 150 150 150 150 150 150 150 150 150 150 150 150 150 150 50 150 150 150 150 150 150 150 150 150 150 150 150 150 150 
150 150 150 150 150 150 150 150 150 150 150 150 150 50 150 150 150 150 150 150 150 150 150 150 150 150 150 150 150 150 150 150 150 150 150 150 50 150 150 150 150 150 150 150 150 150 150 150 150 150 
150 150 150 150 150 150 150 150 150 150 150 150 50 150 150 150 150 150 150 150 150 150 150 150 150 150 150 150 150 150 150 150 150 150 150 150 150 50 150 150 150 150 150 150 150 150 150 150 150 150 
150 150 150 150 150 150 150 150 150 150 150 50 150 150 150 150 150 150 150 150 150 150 150 150 150 150 150 150 150 150 150 150 150 150 150 150 150 150 50 150 150 150 150 150 150 150 150 150 150 150 
150 150 150 150 150 150 150 150 150 150 50 150 150 150 150 150 150 150 150 150 150 150 150 150 150 150 150 150 150 150 150 150 150 150 150 150 150 150 150 50 150 150 150 150 150 150 150 150 150 150 
150 150 150 150 150 150 150 150 150 50 150 150 150 150 150 150 150 150 150 150 150 150 150 150 150 150 150 150 150 150 150 150 150 150 150 150 150 150 150 150 50 150 150 150 150 150 150 150 150 150 
150 150 150 150 150 150 150 150 50 150 150 150 150 150 150 150 150 150 150 150 150 150 150 150 150 150 150 150 150 150 150 150 150 150 150 150 150 150 150 150 150 50 150 150 150 150 150 150 150 150 
150 150 150 150 150 150 150 50 150 150 150 150 150 150 150 150 150 150 150 150 150 150 150 150 150 150 150 150 150 150 150 150 150 150 150 150 150 150 150 150 150 150 50 150 150 150 150 150 150 150 
150 150 150 150 150 150 50 150 150 150 150 150 150 150 150 150 150 150 150 150 150 150 150 150 150 150 150 150 150 150 150 150 150 150 150 150 150 150 150 150 150 150 150 50 150 150 150 150 150 150 
150 150 150 150 150 50 150 150 150 150 150 150 150 150 150 150 150 150 150 150 150 150 150 150 150 150 150 150 150 150 150 150 150 150 150 150 150 150 150 150 150 150 150 150 50 150 150 150 150 150 
150 150 150 150 50 150 150 150 150 150 150 150 150 150 150 150 150 150 150 150 150 150 150 150 150 150 150 150 150 150 150 150 150 150 150 150 150 150 150 150 150 150 150 150 150 50 150 150 150 150 
150 150 150 50 150 150 150 150 150 150 150 150 150 150 150 150 150 150 150 150 150 150 150 150 150 150 150 150 150 150 150 150 150 150 150 150 150 150 150 150 150 150 150 150 150 150 50 150 150 150 
150 150 50 150 150 150 150 150 150 150 150 150 150 150 150 150 150 150 150 150 150 150 150 150 150 150 150 150 150 150 150 150 150 150 150 150 150 150 150 150 150 150 150 150 150 150 150 50 150 150 
150 50 150 150 150 150 150 150 150 150 150 150 150 150 150 150 150 150 150 150 150 150 150 150 150 150 150 150 150 150 150 150 150 150 150 150 150 150 150 150 150 150 150 150 150 150 150 150 50 150 
50 150 150 150 150 150 150 150 150 150 150 150 150 150 150 150 150 150 150 150 150 150 150 150 150 150 150 150 150 150 150 150 150 150 150 150 150 150 150 150 150 150 150 150 150 150 150 150 150 50 
