# This file uses centimeters as units for non-parametric coordinates.

mtllib estrellica.mtl
g default
v 7.889562 1.150329 -2.173651
v 2.212808 1.150329 -2.230414
v 0.068023 1.150328 -7.923502
v -2.151306 1.150329 -2.254857
v -7.817406 1.150328 -2.261558
v -3.523133 1.150328 1.888122
v -4.869315 1.150328 6.987552
v -0.006854 1.150329 4.473047
v 4.838127 1.150328 7.041885
v 3.538153 1.150329 1.927652
v 0.033757 0.000000 -0.314657
v 0.035668 2.269531 -0.312831
vt 0.626409 0.064409
vt 0.548284 0.007647
vt 0.451716 0.007647
vt 0.373591 0.064409
vt 0.343750 0.156250
vt 0.373591 0.248091
vt 0.451716 0.304853
vt 0.548284 0.304853
vt 0.626409 0.248091
vt 0.656250 0.156250
vt 0.375000 0.312500
vt 0.400000 0.312500
vt 0.425000 0.312500
vt 0.450000 0.312500
vt 0.475000 0.312500
vt 0.500000 0.312500
vt 0.525000 0.312500
vt 0.550000 0.312500
vt 0.575000 0.312500
vt 0.600000 0.312500
vt 0.625000 0.312500
vt 0.500000 0.688440
vt 0.500000 0.156250
vn 0.005105 -0.859861 -0.510503
vn 0.005105 -0.859861 -0.510503
vn 0.005105 -0.859861 -0.510503
vn 0.365127 -0.920739 -0.137556
vn 0.365127 -0.920739 -0.137556
vn 0.365127 -0.920739 -0.137556
vn -0.360232 -0.922140 -0.141034
vn -0.360232 -0.922140 -0.141034
vn -0.360232 -0.922140 -0.141034
vn 0.000604 -0.859880 -0.510496
vn 0.000604 -0.859880 -0.510496
vn 0.000604 -0.859880 -0.510496
vn -0.189615 -0.962051 0.196222
vn -0.189615 -0.962051 0.196222
vn -0.189615 -0.962051 0.196222
vn -0.358980 -0.928522 -0.094766
vn -0.358980 -0.928522 -0.094766
vn -0.358980 -0.928522 -0.094766
vn 0.120430 -0.965019 0.232884
vn 0.120430 -0.965019 0.232884
vn 0.120430 -0.965019 0.232884
vn -0.122414 -0.965251 0.230880
vn -0.122414 -0.965251 0.230880
vn -0.122414 -0.965251 0.230880
vn 0.363409 -0.927039 -0.092374
vn 0.363409 -0.927039 -0.092374
vn 0.363409 -0.927039 -0.092374
vn 0.188029 -0.961689 0.199495
vn 0.188029 -0.961689 0.199495
vn 0.188029 -0.961689 0.199495
vn 0.183421 0.963579 0.194606
vn 0.183421 0.963579 0.194606
vn 0.183421 0.963579 0.194606
vn 0.355062 0.930476 -0.090252
vn 0.355062 0.930476 -0.090252
vn 0.355062 0.930476 -0.090252
vn -0.119338 0.967005 0.225079
vn -0.119338 0.967005 0.225079
vn -0.119338 0.967005 0.225079
vn 0.117452 0.966757 0.227125
vn 0.117452 0.966757 0.227125
vn 0.117452 0.966757 0.227125
vn -0.350315 0.932055 -0.092478
vn -0.350315 0.932055 -0.092478
vn -0.350315 0.932055 -0.092478
vn -0.184852 0.963969 0.191293
vn -0.184852 0.963969 0.191293
vn -0.184852 0.963969 0.191293
vn 0.000591 0.866128 -0.499821
vn 0.000591 0.866128 -0.499821
vn 0.000591 0.866128 -0.499821
vn -0.351624 0.925964 -0.137664
vn -0.351624 0.925964 -0.137664
vn -0.351624 0.925964 -0.137664
vn 0.356828 0.924447 -0.134430
vn 0.356828 0.924447 -0.134430
vn 0.356828 0.924447 -0.134430
vn 0.004998 0.866108 -0.499832
vn 0.004998 0.866108 -0.499832
vn 0.004998 0.866108 -0.499832
s off
g pCylinder1
usemtl initialShadingGroup
f 1/11/1 11/22/2 2/12/3
f 2/12/4 11/22/5 3/13/6
f 3/13/7 11/22/8 4/14/9
f 4/14/10 11/22/11 5/15/12
f 5/15/13 11/22/14 6/16/15
f 6/16/16 11/22/17 7/17/18
f 7/17/19 11/22/20 8/18/21
f 8/18/22 11/22/23 9/19/24
f 9/19/25 11/22/26 10/20/27
f 10/20/28 11/22/29 1/21/30
f 1/1/31 12/23/32 10/10/33
f 10/10/34 12/23/35 9/9/36
f 9/9/37 12/23/38 8/8/39
f 8/8/40 12/23/41 7/7/42
f 7/7/43 12/23/44 6/6/45
f 6/6/46 12/23/47 5/5/48
f 5/5/49 12/23/50 4/4/51
f 4/4/52 12/23/53 3/3/54
f 3/3/55 12/23/56 2/2/57
f 2/2/58 12/23/59 1/1/60
g default
v 7.889562 1.150329 -2.173651
v 2.212808 1.150329 -2.230414
v 0.068023 1.150328 -7.923502
v -2.151306 1.150329 -2.254857
v -7.817406 1.150328 -2.261558
v -3.523133 1.150328 1.888122
v -4.869315 1.150328 6.987552
v -0.006854 1.150329 4.473047
v 4.838127 1.150328 7.041885
v 3.538153 1.150329 1.927652
v 0.033757 0.000000 -0.314657
v 0.035668 2.269531 -0.312831
vt 0.626409 0.064409
vt 0.548284 0.007647
vt 0.451716 0.007647
vt 0.373591 0.064409
vt 0.343750 0.156250
vt 0.373591 0.248091
vt 0.451716 0.304853
vt 0.548284 0.304853
vt 0.626409 0.248091
vt 0.656250 0.156250
vt 0.375000 0.312500
vt 0.400000 0.312500
vt 0.425000 0.312500
vt 0.450000 0.312500
vt 0.475000 0.312500
vt 0.500000 0.312500
vt 0.525000 0.312500
vt 0.550000 0.312500
vt 0.575000 0.312500
vt 0.600000 0.312500
vt 0.625000 0.312500
vt 0.500000 0.688440
vt 0.500000 0.156250
vn 0.005105 -0.859861 -0.510503
vn 0.005105 -0.859861 -0.510503
vn 0.005105 -0.859861 -0.510503
vn 0.365127 -0.920739 -0.137556
vn 0.365127 -0.920739 -0.137556
vn 0.365127 -0.920739 -0.137556
vn -0.360232 -0.922140 -0.141034
vn -0.360232 -0.922140 -0.141034
vn -0.360232 -0.922140 -0.141034
vn 0.000604 -0.859880 -0.510496
vn 0.000604 -0.859880 -0.510496
vn 0.000604 -0.859880 -0.510496
vn -0.189615 -0.962051 0.196222
vn -0.189615 -0.962051 0.196222
vn -0.189615 -0.962051 0.196222
vn -0.358980 -0.928522 -0.094766
vn -0.358980 -0.928522 -0.094766
vn -0.358980 -0.928522 -0.094766
vn 0.120430 -0.965019 0.232884
vn 0.120430 -0.965019 0.232884
vn 0.120430 -0.965019 0.232884
vn -0.122414 -0.965251 0.230880
vn -0.122414 -0.965251 0.230880
vn -0.122414 -0.965251 0.230880
vn 0.363409 -0.927039 -0.092374
vn 0.363409 -0.927039 -0.092374
vn 0.363409 -0.927039 -0.092374
vn 0.188029 -0.961689 0.199495
vn 0.188029 -0.961689 0.199495
vn 0.188029 -0.961689 0.199495
vn 0.183421 0.963579 0.194606
vn 0.183421 0.963579 0.194606
vn 0.183421 0.963579 0.194606
vn 0.355062 0.930476 -0.090252
vn 0.355062 0.930476 -0.090252
vn 0.355062 0.930476 -0.090252
vn -0.119338 0.967005 0.225079
vn -0.119338 0.967005 0.225079
vn -0.119338 0.967005 0.225079
vn 0.117452 0.966757 0.227125
vn 0.117452 0.966757 0.227125
vn 0.117452 0.966757 0.227125
vn -0.350315 0.932055 -0.092478
vn -0.350315 0.932055 -0.092478
vn -0.350315 0.932055 -0.092478
vn -0.184852 0.963969 0.191293
vn -0.184852 0.963969 0.191293
vn -0.184852 0.963969 0.191293
vn 0.000591 0.866128 -0.499821
vn 0.000591 0.866128 -0.499821
vn 0.000591 0.866128 -0.499821
vn -0.351624 0.925964 -0.137664
vn -0.351624 0.925964 -0.137664
vn -0.351624 0.925964 -0.137664
vn 0.356828 0.924447 -0.134430
vn 0.356828 0.924447 -0.134430
vn 0.356828 0.924447 -0.134430
vn 0.004998 0.866108 -0.499832
vn 0.004998 0.866108 -0.499832
vn 0.004998 0.866108 -0.499832
s off
g pCylinder1
f 13/34/61 23/45/62 14/35/63
f 14/35/64 23/45/65 15/36/66
f 15/36/67 23/45/68 16/37/69
f 16/37/70 23/45/71 17/38/72
f 17/38/73 23/45/74 18/39/75
f 18/39/76 23/45/77 19/40/78
f 19/40/79 23/45/80 20/41/81
f 20/41/82 23/45/83 21/42/84
f 21/42/85 23/45/86 22/43/87
f 22/43/88 23/45/89 13/44/90
f 13/24/91 24/46/92 22/33/93
f 22/33/94 24/46/95 21/32/96
f 21/32/97 24/46/98 20/31/99
f 20/31/100 24/46/101 19/30/102
f 19/30/103 24/46/104 18/29/105
f 18/29/106 24/46/107 17/28/108
f 17/28/109 24/46/110 16/27/111
f 16/27/112 24/46/113 15/26/114
f 15/26/115 24/46/116 14/25/117
f 14/25/118 24/46/119 13/24/120
g default
v 7.889562 1.150329 -2.173651
v 2.212808 1.150329 -2.230414
v 0.068023 1.150328 -7.923502
v -2.151306 1.150329 -2.254857
v -7.817406 1.150328 -2.261558
v -3.523133 1.150328 1.888122
v -4.869315 1.150328 6.987552
v -0.006854 1.150329 4.473047
v 4.838127 1.150328 7.041885
v 3.538153 1.150329 1.927652
v 0.033757 0.000000 -0.314657
v 0.035668 2.269531 -0.312831
vt 0.626409 0.064409
vt 0.548284 0.007647
vt 0.451716 0.007647
vt 0.373591 0.064409
vt 0.343750 0.156250
vt 0.373591 0.248091
vt 0.451716 0.304853
vt 0.548284 0.304853
vt 0.626409 0.248091
vt 0.656250 0.156250
vt 0.375000 0.312500
vt 0.400000 0.312500
vt 0.425000 0.312500
vt 0.450000 0.312500
vt 0.475000 0.312500
vt 0.500000 0.312500
vt 0.525000 0.312500
vt 0.550000 0.312500
vt 0.575000 0.312500
vt 0.600000 0.312500
vt 0.625000 0.312500
vt 0.500000 0.688440
vt 0.500000 0.156250
vn 0.005105 -0.859861 -0.510503
vn 0.005105 -0.859861 -0.510503
vn 0.005105 -0.859861 -0.510503
vn 0.365127 -0.920739 -0.137556
vn 0.365127 -0.920739 -0.137556
vn 0.365127 -0.920739 -0.137556
vn -0.360232 -0.922140 -0.141034
vn -0.360232 -0.922140 -0.141034
vn -0.360232 -0.922140 -0.141034
vn 0.000604 -0.859880 -0.510496
vn 0.000604 -0.859880 -0.510496
vn 0.000604 -0.859880 -0.510496
vn -0.189615 -0.962051 0.196222
vn -0.189615 -0.962051 0.196222
vn -0.189615 -0.962051 0.196222
vn -0.358980 -0.928522 -0.094766
vn -0.358980 -0.928522 -0.094766
vn -0.358980 -0.928522 -0.094766
vn 0.120430 -0.965019 0.232884
vn 0.120430 -0.965019 0.232884
vn 0.120430 -0.965019 0.232884
vn -0.122414 -0.965251 0.230880
vn -0.122414 -0.965251 0.230880
vn -0.122414 -0.965251 0.230880
vn 0.363409 -0.927039 -0.092374
vn 0.363409 -0.927039 -0.092374
vn 0.363409 -0.927039 -0.092374
vn 0.188029 -0.961689 0.199495
vn 0.188029 -0.961689 0.199495
vn 0.188029 -0.961689 0.199495
vn 0.183421 0.963579 0.194606
vn 0.183421 0.963579 0.194606
vn 0.183421 0.963579 0.194606
vn 0.355062 0.930476 -0.090252
vn 0.355062 0.930476 -0.090252
vn 0.355062 0.930476 -0.090252
vn -0.119338 0.967005 0.225079
vn -0.119338 0.967005 0.225079
vn -0.119338 0.967005 0.225079
vn 0.117452 0.966757 0.227125
vn 0.117452 0.966757 0.227125
vn 0.117452 0.966757 0.227125
vn -0.350315 0.932055 -0.092478
vn -0.350315 0.932055 -0.092478
vn -0.350315 0.932055 -0.092478
vn -0.184852 0.963969 0.191293
vn -0.184852 0.963969 0.191293
vn -0.184852 0.963969 0.191293
vn 0.000591 0.866128 -0.499821
vn 0.000591 0.866128 -0.499821
vn 0.000591 0.866128 -0.499821
vn -0.351624 0.925964 -0.137664
vn -0.351624 0.925964 -0.137664
vn -0.351624 0.925964 -0.137664
vn 0.356828 0.924447 -0.134430
vn 0.356828 0.924447 -0.134430
vn 0.356828 0.924447 -0.134430
vn 0.004998 0.866108 -0.499832
vn 0.004998 0.866108 -0.499832
vn 0.004998 0.866108 -0.499832
s off
g pCylinder1
f 25/57/121 35/68/122 26/58/123
f 26/58/124 35/68/125 27/59/126
f 27/59/127 35/68/128 28/60/129
f 28/60/130 35/68/131 29/61/132
f 29/61/133 35/68/134 30/62/135
f 30/62/136 35/68/137 31/63/138
f 31/63/139 35/68/140 32/64/141
f 32/64/142 35/68/143 33/65/144
f 33/65/145 35/68/146 34/66/147
f 34/66/148 35/68/149 25/67/150
f 25/47/151 36/69/152 34/56/153
f 34/56/154 36/69/155 33/55/156
f 33/55/157 36/69/158 32/54/159
f 32/54/160 36/69/161 31/53/162
f 31/53/163 36/69/164 30/52/165
f 30/52/166 36/69/167 29/51/168
f 29/51/169 36/69/170 28/50/171
f 28/50/172 36/69/173 27/49/174
f 27/49/175 36/69/176 26/48/177
f 26/48/178 36/69/179 25/47/180
